<?xml version="1.0" standalone="no"?>
<!DOCTYPE svg PUBLIC "-//W3C//DTD SVG 1.1//EN" "http://www.w3.org/Graphics/SVG/1.1/DTD/svg11.dtd">
<svg xmlns="http://www.w3.org/2000/svg">
  <defs>
    <font id="GoogleSans" horiz-adv-x="507">
      <font-face font-family="Google Sans 18pt SemiBold" units-per-em="1000" panose-1="0 0 0 0 0 0 0 0 0 0" ascent="966" descent="-286" alphabetic="0" />
      <glyph unicode=" " glyph-name="gid244" horiz-adv-x="233" />
      <glyph unicode="!" glyph-name="gid199" horiz-adv-x="272" d="M86,237L75,501V716H197V501L185,237H86ZM136-6Q102-6 78.5,17.5T55,76q0,33 23.5,56T136,155t57.5-23T217,76q0-35-23.5-58.5T136-6Z" />
      <glyph unicode="&quot;" glyph-name="gid237" horiz-adv-x="376" d="M216,491V716H325V491H216ZM51,491V716H160V491H51Z" />
      <glyph unicode="#" glyph-name="gid206" horiz-adv-x="662" d="M119,0L226,716H328L220,0H119ZM76,512H633l-15-94H61l15,94ZM339,0L447,716H549L441,0H339ZM46,298H603l-15-93H30l16,93Z" />
      <glyph unicode="$" glyph-name="gid252" horiz-adv-x="562" d="M284-15q-41,0-81,11.5t-74,36t-60,61T30,179l104,43q10-35 31-64t51.5-46.5T283,94q33,0 60,11t42.5,32.5T401,187q0,26-11,46.5T355,272t-62,34l-52,22q-38,15-71,36.5t-58.5,48T71.5,471T57,542q0,52 26.5,95T160,706t117,26q72,0 118-23t72-56t36-65L401,542q-6,21-21,39.5t-40,31T279,625q-47,0-78-23.5T170,542q0-22 12-41t36-36t60-34l31-15q60-28 107-58.5t74-71T517,189q0-52-19.5-90.5T444,34.5T368.5-3T284-15ZM245-95V811h84V-95H245Z" />
      <glyph unicode="%" glyph-name="gid275" horiz-adv-x="850" d="M215,390q-49,0-89,23T63.5,475T40,561q1,47 23.5,86T126,709t89,23q50,0 90-23t62.5-62T390,561t-22.5-86T305,413t-90-23Zm0,91q32,0 54,22t22,58t-22,58t-54,22q-31,0-53-22t-22-58t22-58t53-22ZM635-16q-49,0-89,23T483.5,69T460,155q1,47 23.5,86T546,303t89,23q50,0 90-23t62.5-62T810,155T787.5,69T725,7T635-16Zm0,91q32,0 54,22t22,58t-22,58t-54,22q-31,0-53-22t-22-58t22-58t53-22ZM230-13L156,37L620,729l74-50L230-13Z" />
      <glyph unicode="&amp;" glyph-name="gid289" horiz-adv-x="649" d="M529-16L169,429q-24,30-39.5,62T114,558q0,49 23.5,88.5T202,709t93,23q70,0 112.5-34.5T468,613l-97-51q-6,16-16,30.5t-24,24T296,626q-30,0-49-18.5T228,560q0-17 7-31.5T253,499L617,51L529-16ZM298,92q39,2 69.5,14.5t57,39.5t53,71T535,324l89-55q-31-65-63.5-118T490,61T407.5,4T307-16q-75,0-134.5,32T78,105T43,235q0,50 20.5,95.5T122,413t88,59l62-86q-36-10-61.5-33T171,300.5T157,239q0-44 20-78t52.5-52.5T298,92Z" />
      <glyph unicode="&apos;" glyph-name="gid238" horiz-adv-x="211" d="M51,491V716H160V491H51Z" />
      <glyph unicode="(" glyph-name="gid216" horiz-adv-x="348" d="M239-136q-30,34-61,82T121,52.5t-42,127T63,322T79,464.5t42,127T178,698t61,82l90-62q-43-52-76-114.5T201,470T182,322t19-148T253,41T329-74l-90-62Z" />
      <glyph unicode=")" glyph-name="gid217" horiz-adv-x="348" d="M109-136L19-74Q62-21 95,41t52,133t19,148T147,470T95,603.5T19,718l90,62q40-45 80.5-114.5t68-157T285,322q0-74-16-142.5t-42-127T170-54t-61-82Z" />
      <glyph unicode="*" glyph-name="gid205" horiz-adv-x="453" d="M148,354L77,406l73,99l-3,9L39,552l29,83l106-37l8,3V716h88V601l8-3l107,37l29-83L306,514l-3-9l73-99l-72-52L230,455h-8L148,354Z" />
      <glyph unicode="+" glyph-name="gid263" horiz-adv-x="575" d="M235,46V496H339V46H235ZM62,219V323H513V219H62Z" />
      <glyph unicode="," glyph-name="gid195" horiz-adv-x="272" d="M104-123L49-87L108,1Q87,8 71.5,28T56,75q0,34 23.5,57T137,155q17,0 31.5-6T194,132t17.5-25.5T218,75q0-12-3.5-23t-9-21.5T191,8L104-123Z" />
      <glyph unicode="-" glyph-name="gid222" horiz-adv-x="457" d="M62,258V362H395V258H62Z" />
      <glyph unicode="." glyph-name="gid194" horiz-adv-x="272" d="M136-6Q102-6 78.5,17.5T55,76q0,33 23.5,56T136,155t57.5-23T217,76q0-35-23.5-58.5T136-6Z" />
      <glyph unicode="/" glyph-name="gid207" horiz-adv-x="334" d="M1,0L218,716H334L117,0H1Z" />
      <glyph unicode="0" glyph-name="gid147" horiz-adv-x="665" d="M332-16q-65,0-117.5,28.5T125,92T68.5,211T49,357q0,80 19.5,148T125,624.5T214.5,704T332,732t117.5-28T539,624.5T596,505t20-148q0-78-20-146T539,92T449.5,12.5T332-16Zm0,112q51,0 88,34.5t56.5,94T496,358q0,76-19.5,134.5t-56.5,93T332,620q-50,0-87-34.5t-56.5-93T169,358q0-74 19.5-133.5t56.5-94T332,96Z" />
      <glyph unicode="1" glyph-name="gid148" horiz-adv-x="452" d="M211,0V558L103,480L43,572L242,716h88V0H211Z" />
      <glyph unicode="2" glyph-name="gid149" horiz-adv-x="546" d="M49,0V110q2,3 18,19.5t40,42T159,227t55.5,59T264,338.5T297,374q39,40 55,74t16,70q0,25-12.5,48.5t-36,38.5T264,620t-54.5-13T173,574t-20-42L45,576q7,26 24.5,53t45,50.5t65.5,38T266,732q70,0 119.5-29.5t76.5-77T489,523q0-43-15.5-84T433,362t-54-67q-14-15-33.5-35.5t-40-43T265,173t-35.5-37.5T206,111l2-5H498V0H49Z" />
      <glyph unicode="3" glyph-name="gid150" horiz-adv-x="567" d="M278-16q-51,0-99.5,19.5t-85,59T39,164l112,45q13-52 46-81t81-29q31,0 57,13.5T377,150t16,56q0,33-16.5,57.5T331,302t-67,14H205V425h53q30,0 55.5,12t41,35.5T370,527q0,28-12.5,49.5T323,610t-52,12q-32,0-53-14t-34-35t-19-42L56,577q11,33 38.5,69t72,61T273,732q65,0 114-25.5T463.5,637T491,539q0-40-13-72t-33-54.5T402,379v-7q32-12 57.5-37T500,275.5T515,198q0-60-30-109T401.5,12T278-16Z" />
      <glyph unicode="4" glyph-name="gid151" horiz-adv-x="616" d="M45,149v95L356,716H485V0H366V537h-7L177,260H569V149H45Z" />
      <glyph unicode="5" glyph-name="gid152" horiz-adv-x="571" d="M287-16Q237-16 187,4.5T99.5,67T46,174l107,42q13-52 47-86.5T285,95q53,0 88,36.5T408,221q0,36-15.5,65.5t-43,46.5T286,350q-33,0-59.5-14T182,300L66,351l41,365H485V610H206L180,417l7-2q21,18 51.5,30.5T310,458q58,0 107.5-30.5t80-83.5T528,222q0-68-31-122T411.5,15T287-16Z" />
      <glyph unicode="6" glyph-name="gid153" horiz-adv-x="571" d="M288-16Q231-16 185.5,4.5T108,59Q77,92 60,136.5T43,226q0,68 28,125t66,116q20,31 41,64.5T221,599t44.5,68.5T311,736l94-64q-19-29-39-59t-40-60.5T288,495t-33-50l5-5q10,5 25,8t34,3q52,0 100-29.5t78.5-81T528,223q0-51-19-95T456,52T379,2T288-16ZM285,94q35,0 63,16.5T393.5,156T411,221q0,37-17.5,66t-46,46T285,350q-32,0-61-17t-46.5-46T160,221q0-36 17.5-65t46-45.5T285,94Z" />
      <glyph unicode="7" glyph-name="gid154" horiz-adv-x="548" d="M176-16L75,39q49,92 99,186T274,413t98,186l-3,5H45V716H505V598q-41-76-82-153T340.5,290.5T258,136.5T176-16Z" />
      <glyph unicode="8" glyph-name="gid155" horiz-adv-x="590" d="M295-16q-71,0-126,28.5T82.5,89T51,196q0,42 15,76t39.5,59T158,370v8q-22,15-41,38.5t-31,53T74,530q0,55 28.5,101T181,704.5T295,732t113.5-27.5T487,631t29-101q0-31-12-60.5t-31-53T432,378v-8q29-13 53-38.5T524,272t15-76q0-59-31.5-107t-86-76.5T295-16Zm0,111q36,0 63.5,14.5T402,149t16,57t-16.5,57t-44,39.5T295,317t-63-14.5T187.5,263T171,206t16-57t44.5-39.5T295,95Zm0,328q44,0 74,29.5T399,524q0,43-30.5,71.5T295,624q-44,0-74.5-28.5T190,524q0-28 14-51t38-36.5T295,423Z" />
      <glyph unicode="9" glyph-name="gid156" horiz-adv-x="571" d="M260-19L167,45q20,30 40,60t39,59t37,56t34,50l-5,6q-10-4-25.5-8T253,264q-53,0-101,30T73.5,375.5T43,493q0,68 33.5,122T165,700.5T283,732q58,0 105-21.5T467,654q29-33 45-76t16-89q0-67-28-124T434,248q-26-40-55-85T319.5,72T260-19Zm26,385q34,0 62,17t45.5,46T411,495q0,36-17.5,64.5T348,605t-62,17t-62.5-16.5t-46-45T160,495t17.5-66.5t46.5-46T286,366Z" />
      <glyph unicode=":" glyph-name="gid196" horiz-adv-x="272" d="M136,359q-34,0-57.5,23.5T55,440t23.5,57T136,520t57.5-23T217,440t-23.5-57.5T136,359ZM136-6Q102-6 78.5,17.5T55,76q0,33 23.5,56T136,155t57.5-23T217,76q0-35-23.5-58.5T136-6Z" />
      <glyph unicode=";" glyph-name="gid197" horiz-adv-x="272" d="M137,359q-33,0-57,23.5T56,440t24,57t57,23q34,0 58-23t24-57t-24-57.5T137,359ZM104-123L49-87L108,1Q87,8 71.5,28T56,75q0,34 23.5,57T137,155q17,0 31.5-6T194,132t17.5-25.5T218,75q0-12-3.5-23t-9-21.5T191,8L104-123Z" />
      <glyph unicode="&lt;" glyph-name="gid269" horiz-adv-x="520" d="M462,35L55,224v94L462,507V391L195,274v-6L462,151V35Z" />
      <glyph unicode="=" glyph-name="gid267" horiz-adv-x="586" d="M61,316V420H525V316H61Zm0-198V222H525V118H61Z" />
      <glyph unicode="&gt;" glyph-name="gid268" horiz-adv-x="520" d="M59,35V151L326,268v6L59,391V507L466,318V224L59,35Z" />
      <glyph unicode="?" glyph-name="gid201" horiz-adv-x="506" d="M194,237v37q0,33 9,58.5T232.5,383T285,437q19,17 33,32t21.5,31.5T347,537q0,35-24.5,59T254,620q-30,0-51.5-13t-35-32.5T147,533L41,578q11,36 38,71.5t70,59T252,732q63,0 111-25t75-67.5T465,543q0-40-13-70t-34-53.5T375,374q-22-20-35-37t-19-35t-6-42V237H194ZM254-6q-34,0-57.5,23.5T173,75t23.5,57T254,155q33,0 56.5-23T334,75T310.5,17.5T254-6Z" />
      <glyph unicode="@" glyph-name="gid288" horiz-adv-x="892" d="M447-82q-86,0-158,30T164,31T82,154T53,304T81.5,453.5t82,123T289,660t158,30t158-30t124.5-83t81-122.5T839,307q0-59-18.5-107T767,124T681,96q-37,0-68.5,19.5T565,169q-15-24-36-40t-48-24.5T420,96q-52,0-94.5,26t-68,72T232,300t26.5,106T328,478t94,26q26,0 47.5-7t38-19.5T536,449h7v41h90V240q0-25 13.5-44.5T686,176q18,0 30.5,10.5t20,29.5t11,42.5T751,308q0,59-22.5,113t-63,95.5t-96,65T447,605q-64,0-118.5-22t-96-62.5T168,425T145,304t24.5-121T236,87.5T332.5,25T447,3q38,0 71,8t61,24l32-81q-35-17-77.5-26.5T447-82ZM431,185q29,0 54,14t40,39.5T540,300t-15,61.5t-39.5,39T433,414t-53-14t-40-39t-15-61q0-35 14.5-61t39-40T431,185Z" />
      <glyph unicode="A" glyph-name="gid1" horiz-adv-x="709" d="M15,0L284,716H424L694,0H559L384,490l-26,84h-7l-27-84L150,0H15ZM346,178V290H512l41-112H346Zm-195,0l40,112H346V178H151Z" />
      <glyph unicode="B" glyph-name="gid10" horiz-adv-x="631" d="M80,0V716H355q60,0 108.5-25T541,623.5T570,527q0-55-27.5-94T474,374v-7q54-18 88-61.5T596,200q0-61-31.5-105.5T481,25T366,0H80Zm68,313V420H347q33,0 56,13t35,34.5T450,513q0,25-11.5,45.5t-34,33.5T351,605H203V112H363q35,0 59.5,14t37,36.5T472,212q0,28-12.5,51t-38,36.5T359,313H148Z" />
      <glyph unicode="C" glyph-name="gid11" horiz-adv-x="743" d="M419-16q-79,0-147.5,28.5T152,92T73,211T45,358T73,505t79,119t119.5,79.5T419,732q56,0 104-13.5T611.5,679T685,615l-86-84q-23,27-49.5,46t-59,29T419,616q-69,0-126-32t-91-89.5T168,358q0-78 34-136t91-90t126-32q63,0 111.5,26T617,197l87-83q-34-40-78-69.5t-96-45T419-16Z" />
      <glyph unicode="D" glyph-name="gid13" horiz-adv-x="727" d="M80,0V716H316q113,0 195.5-45.5T638,544.5T682,358T638,171.5T511.5,45.5T316,0H80ZM203,116H311q81,0 136,29.5t83.5,84T559,358q0,75-28.5,129T447,570.5T311,600H203V116Z" />
      <glyph unicode="E" glyph-name="gid15" horiz-adv-x="575" d="M80,0V716H524V600H203V116H524V0H80Zm68,300V416H492V300H148Z" />
      <glyph unicode="F" glyph-name="gid20" horiz-adv-x="560" d="M80,0V716H524V600H203V0H80Zm68,292V408H492V292H148Z" />
      <glyph unicode="G" glyph-name="gid21" horiz-adv-x="815" d="M421-16q-77,0-145,28T155.5,90.5T74,209T45,358T74,507t81,118.5T275,704t146,28q84,0 153-29.5T691,621l-84-84q-23,26-51.5,43T494,606.5T420,616q-51,0-96.5-18.5T243,545t-55-81T168,358t20-106t55.5-81t81-52.5T422,100q49,0 90,14t70.5,39t48,58.5T654,284H419V390H768q3-11 5-29t2-31q0-79-26.5-142.5t-74-109t-112-70T421-16Z" />
      <glyph unicode="H" glyph-name="gid22" horiz-adv-x="724" d="M80,0V716H203V0H80Zm68,308V424H571V308H148ZM521,0V716H643V0H521Z" />
      <glyph unicode="I" glyph-name="gid23" horiz-adv-x="283" d="M80,0V716H203V0H80Z" />
      <glyph unicode="J" glyph-name="gid28" horiz-adv-x="558" d="M257-16q-83,0-145.5,45.5T24,155l113,47q15-52 46-77t74-25q49,0 78,33t29,90V716H486V225q0-79-30.5-132.5T373,11.5T257-16Z" />
      <glyph unicode="K" glyph-name="gid29" horiz-adv-x="670" d="M80,0V716H203V282V0H80ZM512,0L261,358l84,96L661,7V0H512ZM144,139l1,172L487,716H636v-7L144,139Z" />
      <glyph unicode="L" glyph-name="gid30" horiz-adv-x="536" d="M80,0V716H203V116H508V0H80Z" />
      <glyph unicode="M" glyph-name="gid32" horiz-adv-x="890" d="M80,0V716H242L441,192h7L648,716H810V0H688V379l7,123h-7L493,0H397L201,502h-7l7-123V0H80Z" />
      <glyph unicode="N" glyph-name="gid33" horiz-adv-x="732" d="M80,0V716H224L530,213h7l-7,138V716H652V0H523L201,530h-7l7-138V0H80Z" />
      <glyph unicode="O" glyph-name="gid35" horiz-adv-x="834" d="M417-16q-80,0-148,28.5t-118,80T73,212T45,358T73,503.5T151,623t118,80.5T417,732t147.5-28.5t118-80T761,504t28-146T761,212T682.5,92.5t-118-80T417-16Zm0,116q70,0 126,32.5t90,91T667,358q0,77-34,135t-90,90.5T417,616q-69,0-125.5-32.5t-90-90.5T168,358q0-76 33.5-134.5t90-91T417,100Z" />
      <glyph unicode="P" glyph-name="gid43" horiz-adv-x="599" d="M80,0V716H330q66,0 120-28t86-78t32-116T536,377.5t-86-79T330,270H148V386H333q37,0 62.5,15.5t38.5,40T447,494q0,27-13,51t-38.5,39.5T333,600H203V0H80Z" />
      <glyph unicode="Q" glyph-name="gid45" horiz-adv-x="834" d="M417-16q-80,0-148,28.5t-118.5,80T72.5,212T45,358T73,503.5T151,623t118,80.5T417,732t147.5-28.5t118-80T761,504t28-146T761,212T683,92.5t-118-80T417-16ZM631-61L430,239l91,63L723-1L631-61ZM417,100q70,0 126.5,32.5t90,91T667,358q0,77-34,135t-90,90.5T417,616q-69,0-125.5-32.5t-90-90.5T168,358q0-76 33.5-134.5t90-91T417,100Z" />
      <glyph unicode="R" glyph-name="gid46" horiz-adv-x="627" d="M80,0V716H337q69,0 121.5-28.5T541,609t30-115q0-47-18.5-86.5T500,338t-81-46.5T315,275H148V387H335q32,0 57.5,14T433,439.5T448,495q0,28-12.5,52T398,586.5T338,602H203V0H80ZM242,326l142,1L607,7V0H466L242,326Z" />
      <glyph unicode="S" glyph-name="gid47" horiz-adv-x="575" d="M292-16Q234-16 181,6.5T88.5,74T30,185l115,45q15-55 52.5-92.5T294,100q31,0 58,11t44,32t17,52q0,30-14.5,50.5t-46,38.5T269,321l-44,16q-29,11-59,27.5T111.5,405T72,460.5T57,534q0,55 28.5,100t80,71.5T284,732q71,0 117.5-24.5t73-59T512,582L403,536q-6,20-20.5,39.5T344,607t-58,12q-30,0-55-10.5t-39.5-29T177,536q0-35 29.5-59T297,433l46-15q36-13 70.5-30t62-43T519,283t16-86q0-55-22-95.5T455.5,35T377-3.5T292-16Z" />
      <glyph unicode="T" glyph-name="gid48" horiz-adv-x="567" d="M222,0V652H345V0H222ZM22,600V716H545V600H22Z" />
      <glyph unicode="U" glyph-name="gid49" horiz-adv-x="692" d="M346-16q-83,0-144.5,36t-96,102.5T71,280V716H193V273q0-49 17-88.5t51.5-62T346,100t84,22.5t51.5,62T499,273V716H620V280q0-87-33.5-154T492,21.5T346-16Z" />
      <glyph unicode="V" glyph-name="gid54" horiz-adv-x="673" d="M268,0L15,716H148L303,262l26-86h7l27,86L525,716H658L396,0H268Z" />
      <glyph unicode="W" glyph-name="gid55" horiz-adv-x="972" d="M207,0L16,716H152L258,283l12-69h7l16,69L428,716H549L680,283l15-67h7l12,67L820,716H955L768,0H638L508,454l-16,71h-7l-16-71L333,0H207Z" />
      <glyph unicode="X" glyph-name="gid56" horiz-adv-x="666" d="M30,716H180L330,471h25L653,0H503L337,268H316L30,716ZM13,0L311,471h26L485,716H636L350,268H330L164,0H13Z" />
      <glyph unicode="Y" glyph-name="gid57" horiz-adv-x="621" d="M251,0V387H374V0H251ZM10,716H155L308,462h7L464,716H611L374,332H251L10,716Z" />
      <glyph unicode="Z" glyph-name="gid59" horiz-adv-x="598" d="M40,0V124L409,600H56V716H551V592L185,116H555V0H40Z" />
      <glyph unicode="[" glyph-name="gid220" horiz-adv-x="353" d="M80-124V792H317V694H196V-26H317v-98H80Z" />
      <glyph unicode="\" glyph-name="gid208" horiz-adv-x="334" d="M218,0L1,716H117L334,0H218Z" />
      <glyph unicode="]" glyph-name="gid221" horiz-adv-x="353" d="M36-124v98H157V694H36v98H272V-124H36Z" />
      <glyph unicode="^" glyph-name="gid273" horiz-adv-x="500" d="M11,410L201,716h98L489,410H365L254,603h-7L135,410H11Z" />
      <glyph unicode="_" glyph-name="gid226" horiz-adv-x="493" d="M0-216v104H493V-216H0Z" />
      <glyph unicode="`" glyph-name="gid316" horiz-adv-x="431" d="M186,605L101,736H239l44-131H186Z" />
      <glyph unicode="a" glyph-name="gid62" horiz-adv-x="553" d="M222-16q-55,0-97,21.5T59,66T35,155q0,54 28,92.5t75,59T243,327q31,0 57.5-4t47-10T380,301v24q0,46-33.5,74.5T258,428q-38,0-72-17t-56-46L51,427q24,31 56,53.5t72,34T262,526q114,0 174.5-54.5T497,316V0H380V57h-7q-13-19-35-35.5t-51-27T222-16Zm25,95q41,0 71,18.5t46,49T380,211q-22,13-51.5,20T267,238q-62,0-87-24t-25-59q0-33 24-54.5T247,79Z" />
      <glyph unicode="b" glyph-name="gid70" horiz-adv-x="621" d="M340-16q-38,0-69,11.5t-53.5,30T182,65h-7V0H63V716H182V516l-7-72h7q13,21 35.5,40T271,514.5T340,526q70,0 125.5-34.5t88-95.5T586,255T553.5,114t-88-95.5T340-16ZM321,94q39,0 72,19.5t53.5,56T467,255q0,50-20.5,85.5t-53.5,55T321,415q-38,0-71.5-19.5t-54-55.5T175,255t20.5-85t54-56T321,94Z" />
      <glyph unicode="c" glyph-name="gid71" horiz-adv-x="560" d="M300-16q-77,0-137,35T69,115.5T35,255q0,79 34,140t94,96t137,35q86,0 145.5-37T531,386L422,340q-17,38-48,56.5T299,415q-40,0-73-19.5T173.5,340T154,255t19.5-85T226,114t73-20q47,0 78.5,21T427,173l107-47Q505,63 445.5,23.5T300-16Z" />
      <glyph unicode="d" glyph-name="gid73" horiz-adv-x="621" d="M281-16q-70,0-125.5,34.5T67.5,114T35,255T67.5,396t88,95.5T281,526q38,0 69-11.5T404,484t36-40h7l-7,72V716H558V0H447V65h-7q-13-21-36-39.5t-54-30T281-16ZM300,94q39,0 72,20t54,56t21,85t-21,85t-54,55.5T300,415q-38,0-71.5-19.5t-54-55T154,255q0-49 20.5-85.5t54-56T300,94Z" />
      <glyph unicode="e" glyph-name="gid75" horiz-adv-x="578" d="M299-16q-77,0-136.5,35T69,115T35,254q0,73 33,135t91,99.5T293,526q81,0 136.5-34.5t84.5-93T543,267q0-13-1-23.5T540,228H102v87H426q-1,18-9.5,37.5T391,389t-41,27.5T294,427q-41,0-74-21.5t-51-59T151,258q0-55 20.5-92.5T226,109t75-19q49,0 82.5,22T436,167l97-48q-35-61-92.5-98T299-16Z" />
      <glyph unicode="f" glyph-name="gid80" horiz-adv-x="384" d="M25,407V510h97V407H25ZM117,0V545q0,54 22.5,94.5t64,62.5T301,724q19,0 39.5-3t38.5-8V596q-17,8-33.5,12T313,612q-35,0-56-20.5T236,534V0H117ZM231,407V510H363V407H231Z" />
      <glyph unicode="g" glyph-name="gid81" horiz-adv-x="615" d="M295-232q-68,0-117.5,21.5T97-155.5T53-85L165-40q16-38 50-62t80-24q66,0 104.5,40T438,28V72h-7q-24-35-64.5-55T273-3Q210-3 155.5,29.5T68,121.5T35,262T68,402t87.5,91.5T273,526q53,0 93.5-19.5T431,451h7v59H552V31q0-83-32-142t-89.5-90T295-232Zm1,338q38,0 70.5,18t52,53T438,262q0,51-19.5,86t-52,52.5T296,418q-37,0-70-18t-52.5-52.5T154,262t19.5-86T226,123.5T296,106Z" />
      <glyph unicode="h" glyph-name="gid82" horiz-adv-x="590" d="M63,0V716H182V527l-7-84h7q22,36 64.5,59.5T340,526q63,0 106-25.5t64.5-72T532,320V0H412V304q0,38-13.5,62.5t-37,36.5T308,415q-37,0-65.5-20.5T198,340t-16-75V0H63Z" />
      <glyph unicode="i" glyph-name="gid83" horiz-adv-x="245" d="M63,0V510H182V0H63Zm60,576q-33,0-56,23T44,655q0,32 23,55t56,23q32,0 55-23t23-55q0-33-23-56t-55-23Z" />
      <glyph unicode="j" glyph-name="gid89" horiz-adv-x="245" d="M26-226q-18,0-32,1.5T-36-219v115q10-5 23-9t27-4q26,0 37.5,16.5T63-53V510H182V-56q0-61-21-98.5T105-209T26-226Zm97,802q-33,0-56,23T44,655q0,32 23,55t56,23q32,0 55-23t23-55q0-33-23-56t-55-23Z" />
      <glyph unicode="k" glyph-name="gid91" horiz-adv-x="544" d="M63,0V716H182V0H63Zm65,106V255L385,510H532v-7L128,106ZM399,0L224,275l83,81L541,7V0H399Z" />
      <glyph unicode="l" glyph-name="gid92" horiz-adv-x="245" d="M63,0V716H182V0H63Z" />
      <glyph unicode="m" glyph-name="gid93" horiz-adv-x="899" d="M63,0V510H175V443h7q16,24 39,43t53,29.5T338,526q56,0 96-26.5T491,434q23,38 66,65t106,27q89,0 133-54.5T840,328V0H722V307q0,55-25,81.5T629,415q-35,0-61.5-19.5t-41-53T512,265V0H392V306q0,56-25,82.5T296,415q-34,0-60-19.5T196,342t-14-78V0H63Z" />
      <glyph unicode="n" glyph-name="gid94" horiz-adv-x="587" d="M63,0V510H175V443h7q22,37 65,60t93,23q94,0 141.5-56.5T529,320V0H409V304q0,56-28,83.5T306,415q-37,0-65-20.5t-43.5-54T182,267V0H63Z" />
      <glyph unicode="o" glyph-name="gid96" horiz-adv-x="608" d="M304-16q-79,0-140,35.5t-95,97T35,255T69,393.5t95,97T304,526q80,0 140.5-36T539,392.5T573,255q0-77-34-138.5t-95-97T304-16Zm0,111q40,0 74,19t55,55t21,86q0,51-21,86.5T378,396t-73,19q-40,0-74.5-19T175,341t-21-86q0-51 21-87t55.5-54.5T304,95Z" />
      <glyph unicode="p" glyph-name="gid104" horiz-adv-x="621" d="M63-216V510H175V444h7q13,21 35.5,40T271,514.5T340,526q70,0 125.5-34.5t88-95.5T586,255T553.5,114t-88-95.5T340-16q-56,0-97,24.5T182,65h-7l7-72V-216H63ZM321,94q39,0 72,19.5t53.5,56T467,255q0,50-20.5,85.5t-53.5,55T321,415q-38,0-71.5-19.5t-54-55.5T175,255t20.5-85t54-56T321,94Z" />
      <glyph unicode="q" glyph-name="gid106" horiz-adv-x="621" d="M440-216V-7l7,72h-7q-13-21-36-39.5t-54-30T281-16q-69,0-125,34.5T67.5,114T35,255T67.5,396T156,491.5T281,526q38,0 69-11.5t54-30T440,444h7v66H558V-216H440ZM300,94q38,0 71.5,20T426,170t21,85t-21,85t-54.5,55.5T300,415t-71.5-19.5t-54-55.5T154,255t21-85.5t54-56T300,94Z" />
      <glyph unicode="r" glyph-name="gid107" horiz-adv-x="408" d="M63,0V510H175V438h7q12,26 34,45t51.5,30.5T329,525q21,0 36.5-3t26.5-8V393q-19,8-39,13t-42,5q-39,0-68-19.5T198,338t-16-76V0H63Z" />
      <glyph unicode="s" glyph-name="gid108" horiz-adv-x="495" d="M253-16Q189-16 143,3T68.5,53T26,121l106,47q18-39 49.5-59T254,89q36,0 63.5,12.5T345,144q0,21-13.5,33.5T297,198t-46,13l-61,14q-37,8-69.5,28t-53,50.5T47,375q0,46 27,80t72,52.5T245,526q49,0 89.5-12t70-36.5T451,415L349,370q-17,32-44,45t-59,13q-36,0-58.5-14.5T165,377t21.5-36.5T238,318l75-18q75-18 113.5-57.5T465,147q0-49-28.5-86T360,4T253-16Z" />
      <glyph unicode="t" glyph-name="gid110" horiz-adv-x="402" d="M25,407V510h94V407H25ZM276-8Q201-8 157.5,35.5T114,156V654H233V179q0-39 16-57t50-18q16,0 30,4.5T362,125V8Q341,0 320-4T276-8ZM229,407V510H359V407H229Z" />
      <glyph unicode="u" glyph-name="gid111" horiz-adv-x="587" d="M247-16q-94,0-141,57T59,197V510H178V212q0-58 28-88t71-30q40,0 69,20.5T390,169t15,74V510H525V0H412V67h-7q-14-24-38.5-43T312-5.5T247-16Z" />
      <glyph unicode="v" glyph-name="gid116" horiz-adv-x="556" d="M217,0L4,510H138L275,158h6L419,510H552L336,0H217Z" />
      <glyph unicode="w" glyph-name="gid117" horiz-adv-x="818" d="M169,0L6,510H138l96-349h6L349,510H471L580,161h5l97,349H812L648,0H521L410,349h-5L295,0H169Z" />
      <glyph unicode="x" glyph-name="gid118" horiz-adv-x="510" d="M6,0L219,310h12L358,510H503L290,212h-5L147,0H6ZM8,510H148L286,305h6L504,0H363L222,213h-6L8,510Z" />
      <glyph unicode="y" glyph-name="gid119" horiz-adv-x="554" d="M246-192q-3-7-6-13.5T235-216H108q4,9 14.5,32T141-142q6,12 13.5,29T170-78.5T184-49l75,167l25,59L418,510H550L287-97q-9-21-17.5-40.5t-14-33.5T246-192ZM224,11L4,510H139L278,177h13L224,11Z" />
      <glyph unicode="z" glyph-name="gid122" horiz-adv-x="502" d="M40,0V98L315,408H48V510H461V412L187,102H469V0H40Z" />
      <glyph unicode="{" glyph-name="gid218" horiz-adv-x="329" d="M267-124q-55,0-95,22T110.5-40T89,54V213q0,25-9,40.5t-24,23T23,284V384q18,0 33,7.5T80,415t9,40V614q0,54 21.5,94T172,770t95,22h31V694H281q-32,0-54-22.5T205,610V456q0-49-16-78t-54-41v-6q38-12 54-40.5T205,212V58q0-39 22-61.5T281-26h17v-98H267Z" />
      <glyph unicode="|" glyph-name="gid298" horiz-adv-x="270" d="M80-120V792H190V-120H80Z" />
      <glyph unicode="}" glyph-name="gid219" horiz-adv-x="329" d="M31-124v98H49q32,0 54,22.5T125,58V212q0,50 16,78.5T195,331v6q-38,12-54,41t-16,78V610q0,39-22,61.5T49,694H31v98H62q57,0 96.5-22T219,708t21-94V455q0-24 9-40t24.5-23.5T306,384V284q-17,0-32.5-7.5t-24.5-23T240,213V54q0-54-21-94t-60.5-62T62-124H31Z" />
      <glyph unicode="~" glyph-name="gid271" horiz-adv-x="556" d="M389,226q-31,0-62.5,11.5T265,262q-24,10-45.5,18T180,288q-23,0-35-14t-14-32H37q0,45 16.5,78T99,371.5T166,390q33,0 65.5-11.5T293,354q25-10 45.5-18t37.5-8q24,0 36,14t13,32h95q0-44-16.5-77.5t-46-52T389,226Z" />
      <glyph unicode="&#xa0;" glyph-name="gid245" horiz-adv-x="233" />
      <glyph unicode="&#xa1;" glyph-name="gid200" horiz-adv-x="272" d="M75-216V-1L86,278h99L197-1V-216H75Zm61,580q-34,0-57.5,23.5T55,445t23.5,57.5T136,526t57.5-23.5T217,445t-23.5-57.5T136,364Z" />
      <glyph unicode="&#xa2;" glyph-name="gid250" horiz-adv-x="545" d="M292,87q-75,0-133,33.5t-91,92T35,346q0,76 33,134t91,91.5T292,605q57,0 100-18.5t73-50T513,465L412,425q-19,40-49,60t-74,20q-37,0-70-20t-53-55.5T146,346t20-83.5T219,207t70-20q45,0 79,21.5T421,270l96-42q-20-40-51-71.5T392,106T292,87ZM246,0V692h84V0H246Z" />
      <glyph unicode="&#xa3;" glyph-name="gid254" horiz-adv-x="541" d="M38,0V98q32,13 53.5,37.5t32,53T134,242q0,37-14,70T86.5,378.5T53,449.5T39,533q0,53 26.5,98t74,73T250,732q61,0 103-22t67-55.5T456,586L351,543q-8,30-31.5,56T250,625q-31,0-53-13.5T164,576t-11-48q0-36 13.5-68.5t31-64T229,331t14-73q0-28-6.5-55.5T218,152t-29-39l5-6H352q32,0 50,15.5T428,166l94-40q-12-38-34-66.5t-55-44T353,0H38Zm2,260v92H353V260H40Z" />
      <glyph unicode="&#xa4;" glyph-name="gid251" horiz-adv-x="622" d="M128,87L68,148l59,57q-16,27-25.5,57T92,325q0,34 9.5,64T127,445L68,503l60,60l59-57q26,18 57.5,28T311,544q34,0 65.5-10T434,506l59,57l60-60l-57-58q16-26 25-56t9-64q0-33-9-63t-25-57l57-57L493,87l-59,57q-26-18-57.5-28T311,106q-35,0-66.5,10T187,144L128,87ZM311,202q33,0 60,16.5T413.5,263T429,325q0,35-15.5,62.5t-42.5,44T311,448t-60-16.5t-43-44T192,325q0-34 16-62t43-44.5T311,202Z" />
      <glyph unicode="&#xa5;" glyph-name="gid255" horiz-adv-x="619" d="M250,0V332L14,716H158L278,503l30-67h7l29,67L460,716H605L372,332V0H250ZM84,146V251H536V146H84Zm0,180V430H536V326H84Z" />
      <glyph unicode="&#xa6;" glyph-name="gid299" horiz-adv-x="270" d="M80-120V292H190V-120H80Zm0,496V756H190V376H80Z" />
      <glyph unicode="&#xa7;" glyph-name="gid291" horiz-adv-x="567" d="M292-232q-63,0-113.5,25t-85,69T46-38L156,5q9-36 28.5-64.5t47-45.5T293-122q46,0 75.5,23T398-36q0,28-14.5,47t-46,35T256,79l-26,9q-53,18-89.5,44.5T86,194T68,270q0,55 30.5,94.5T179,428l89-53q-25-5-44.5-18t-31-32T181,282q0-22 12.5-40.5t40.5-34T307,177q42-13 79.5-31t67-43T500,44t17-79q0-61-31-105t-81.5-68T292-232ZM427,80l-92,54q20,7 35.5,22T395,190.5t9,39.5q0,31-14.5,53.5t-46,40T261,358q-60,20-102.5,45t-65,60T71,547q0,50 27.5,92t76,67.5T287,732q62,0 107-24t71.5-58.5T501,582L392,539q-5,21-18.5,40t-35,31T285,622q-41,0-67.5-21.5T191,549t25.5-49.5T303,460l27-10q58-19 101.5-46t67-66T522,242q0-38-12-69t-33.5-54T427,80Z" />
      <glyph unicode="&#xa8;" glyph-name="gid315" horiz-adv-x="437" d="M310,608q-27,0-47,20t-20,47q0,28 20,47.5T310,742q29,0 48-19.5T377,675q0-27-19-47t-48-20Zm-184,0q-27,0-47,20T59,675q0,28 20,47.5T126,742q29,0 48-19.5T193,675q0-27-19-47t-48-20Z" />
      <glyph unicode="&#xa9;" glyph-name="gid292" horiz-adv-x="531" d="M266,272q-63,0-115.5,31T67,386.5T36,502T67,617.5T150.5,701T266,732t115.5-31T465,617.5T496,502T465,386.5T381.5,303T266,272Zm3,111q-33,0-60,16t-42.5,43.5T151,502q0,33 15.5,60T209,605t60,16q32,0 52-11t36-28l-32-29q-10,12-22,18.5T270,578q-29,0-51.5-22T196,502t22.5-54T270,426q21,0 35.5,9T330,458l34-27q-16-21-39-34.5T269,383Zm-3-64q51,0 92,25t66,67t25,91q0,51-25,92t-66,66t-92,25q-50,0-91.5-25T108,594T83,502q0-49 25-91t66.5-67T266,319Z" />
      <glyph unicode="&#xaa;" glyph-name="gid144" horiz-adv-x="488" d="M204,272q-45,0-82.5,18.5T61.5,342T39,420q0,46 25,79t66.5,50T220,566q27,0 49.5-4T310,552t31-12v14q0,28-13,48t-36,31t-52,11q-32,0-57.5-13T142,591L53,636q16,29 42.5,50.5t63,33.5T239,732q62,0 109-21t73.5-62.5T448,545V286H341v51h-7q-13-19-32-33.5t-44-23T204,272Zm21,86q24,0 45,8t37.5,22.5t25,34T341,463q-7,4-20.5,9.5T288,483t-43,5q-33,0-54.5-9.5t-31.5-25T149,418q0-29 23-44.5T225,358Z" />
      <glyph unicode="&#xab;" glyph-name="gid233" horiz-adv-x="592" d="M248,44L39,271L248,498l68-63L164,271L316,107L248,44Zm217,0L256,271L465,498l68-63L381,271L533,107L465,44Z" />
      <glyph unicode="&#xac;" glyph-name="gid272" horiz-adv-x="600" d="M410,92V283H55V386H512V92H410Z" />
      <glyph unicode="&#xad;" glyph-name="gid223" horiz-adv-x="0" />
      <glyph unicode="&#xae;" glyph-name="gid293" horiz-adv-x="531" d="M266,272q-63,0-115.5,31T67,386.5T36,502T67,617.5T150.5,701T266,732t115.5-31T465,617.5T496,502T465,386.5T381.5,303T266,272Zm0,47q51,0 92,25t66,67t25,91q0,51-25,92t-66,66t-92,25q-50,0-91.5-25T108,594T83,502q0-49 25-91t66.5-67T266,319Zm-77,70V615h95q30,0 52-20.5T358,543q0-23-14.5-41.5T308,477l-2-2l60-84v-2H314l-55,84H234V389H189Zm45,126h47q12,0 21.5,7.5T312,543q0,10-8,19.5T282,572H234V515Z" />
      <glyph unicode="&#xaf;" glyph-name="gid321" horiz-adv-x="412" d="M60,633v92H351V633H60Z" />
      <glyph unicode="&#xb0;" glyph-name="gid295" horiz-adv-x="323" d="M162,474q-36,0-65.5,17.5T49,538.5T31,603q0,36 18,65.5T96.5,715T162,732t65.5-17t47-46.5T292,603q0-35-17.5-64.5t-47-47T162,474Zm0,72q24,0 39,17.5T216,603q0,24-15,40.5T162,660t-39.5-17T107,603t15.5-40T162,546Z" />
      <glyph unicode="&#xb1;" glyph-name="gid270" horiz-adv-x="561" d="M55,0V104H506V0H55ZM228,167V555H332V167H228ZM55,312v98H506V312H55Z" />
      <glyph unicode="&#xb2;" glyph-name="gid188" horiz-adv-x="311" d="M26,470v61q1,2 13.5,14T70,575t36,36t32,32t18,19q17,18 29.5,33.5T198,731q0,16-13,27.5T153,770q-20,0-35-12.5T98,717L23,747q11,45 46.5,71T153,844q36,0 65-13.5T264.5,793T282,736q0-24-11-45t-25.5-38T220,624q-8-8-20-20t-25-25t-23-23t-13-12H284V470H26Z" />
      <glyph unicode="&#xb3;" glyph-name="gid189" horiz-adv-x="329" d="M162,462q-47,0-86.5,24T23,562l77,29q7-31 24.5-44T162,534q21,0 37,13t16,35q0,21-16.5,33T156,627q-23,0-31,0t-8,0v66q0,0 7.5,0t15.5,0t12,0q24,0 38,11t14,30q0,18-13,28t-30,10q-24,0-36.5-12.5T106,733L34,762q13,36 45,59t83,23q56,0 89.5-30T285,740q0-24-10.5-43T242,663q24-13 40-34.5T298,579q0-37-19-63t-50-40t-67-14Z" />
      <glyph unicode="&#xb4;" glyph-name="gid317" horiz-adv-x="431" d="M153,605l44,131H335L250,605H153Z" />
      <glyph unicode="&#xb5;" glyph-name="gid274" horiz-adv-x="663" d="M63-216V510H182V208q0-38 13-63.5t34.5-38T279,94q40,0 69,21.5t45,56T409,246V510H528V179q0-39 13-57t44-18q14,0 26,4t22,11V3q-16-5-32-8T564-8q-61,0-92,25T428,82h-7q-15-29-35.5-51T338-3.5T273-16q-25,0-50.5,10T182,20h-7l7-61V-216H63Z" />
      <glyph unicode="&#xb6;" glyph-name="gid290" horiz-adv-x="634" d="M277-216V296H247q-59,0-110.5,25T54,393.5T23,506q0,66 31,113t82.5,72T247,716H555V-216H453V616H378V-216H277Z" />
      <glyph unicode="&#xb7;" glyph-name="gid203" horiz-adv-x="272" d="M136,244q-34,0-57.5,23.5T55,326q0,33 23.5,56T136,405t57.5-23T217,326q0-35-23.5-58.5T136,244Z" />
      <glyph unicode="&#xb8;" glyph-name="gid322" horiz-adv-x="409" d="M169-237q-35,0-61,19T71-171l61,26q4-13 13.5-21.5T169-175q17,0 26.5,10.5T205-140t-9.5,25.5T169-103q-10,0-17-4.5T140-118L83-92L119,0h64L162-48q5,2 9.5,2t9.5,0q39,0 66-26t27-69q0-27-13-49t-37-34.5T169-237Z" />
      <glyph unicode="&#xb9;" glyph-name="gid187" horiz-adv-x="261" d="M119,470V732L69,689L23,750l104,86h75V470H119Z" />
      <glyph unicode="&#xba;" glyph-name="gid145" horiz-adv-x="528" d="M264,272q-66,0-118,29.5t-81.5,82T35,502q0,67 29.5,119T146,702.5T264,732t117.5-29.5T463,621t30-119q0-66-30-118.5t-81.5-82T264,272Zm0,100q31,0 58.5,16T367,433.5T384,502q0,40-17,69t-44.5,45T264,632t-59-16t-45-45t-17-69q0-39 17-68.5T205,388t59-16Z" />
      <glyph unicode="&#xbb;" glyph-name="gid234" horiz-adv-x="592" d="M127,44L59,107L211,271L59,435l68,63L336,271L127,44Zm217,0l-68,63L428,271L276,435l68,63L553,271L344,44Z" />
      <glyph unicode="&#xbc;" glyph-name="gid192" horiz-adv-x="707" d="M119,350V612L69,569L23,630l104,86h75V350H119ZM161-14L89,35L554,729l72-49L161-14ZM379,67v59L551,366h80V0H551V251h-7L462,137H680V67H379Z" />
      <glyph unicode="&#xbd;" glyph-name="gid191" horiz-adv-x="745" d="M119,350V612L69,569L23,630l104,86h75V350H119ZM153-14L81,35L546,729l72-49L153-14ZM460,0V61q1,2 13.5,14T504,105t36,36t32,32t18,19q17,18 29.5,33.5T632,261q0,16-13,27.5T587,300q-20,0-35-12.5T532,247l-75,30q11,45 46.5,71T587,374q36,0 65-13.5T698.5,323T716,266q0-24-11-45t-25.5-38T654,154q-8-8-20-20t-25-25T586,86T573,74H718V0H460Z" />
      <glyph unicode="&#xbe;" glyph-name="gid193" horiz-adv-x="783" d="M162,342q-47,0-86.5,24T23,442l77,29q7-31 24.5-44T162,414q21,0 37,13t16,35q0,21-16.5,33T156,507q-23,0-31,0t-8,0v66q0,0 7.5,0t15.5,0t12,0q24,0 38,11t14,30q0,18-13,28t-30,10q-24,0-36.5-12.5T106,613L34,642q13,36 45,59t83,23q56,0 89.5-30T285,620q0-24-10.5-43T242,543q24-13 40-34.5T298,459q0-37-19-63t-50-40t-67-14ZM226-14L154,35L619,729l72-49L226-14ZM455,67v59L627,366h80V0H627V251h-7L538,137H756V67H455Z" />
      <glyph unicode="&#xbf;" glyph-name="gid202" horiz-adv-x="481" d="M254-232q-63,0-111,25T68-139T41-43Q41-3 54.5,27t34,54T131,126q34,31 47.5,55T192,240v38H311V226q0-32-9-58t-28.5-50.5T220,63q-18-17-32-32T166.5,0T159-37q0-35 24.5-59T251-120q31,0 53,13t35.5,32.5T359-33L465-78q-11-35-37.5-71T358-208.5T254-232Zm-2,596q-33,0-57,23.5T171,445t24,57.5T252,526q34,0 57.5-23.5T333,445t-23.5-57.5T252,364Z" />
      <glyph unicode="&#xc0;" glyph-name="gid6" horiz-adv-x="709" d="M15,0L284,716H424L694,0H559L384,490l-26,84h-7l-27-84L150,0H15ZM346,178V290H512l41-112H346Zm-195,0l40,112H346V178H151ZM311,780L226,911H364l44-131H311Z" />
      <glyph unicode="&#xc1;" glyph-name="gid2" horiz-adv-x="709" d="M15,0L284,716H424L694,0H559L384,490l-26,84h-7l-27-84L150,0H15ZM346,178V290H512l41-112H346Zm-195,0l40,112H346V178H151ZM306,780l44,131H488L403,780H306Z" />
      <glyph unicode="&#xc2;" glyph-name="gid4" horiz-adv-x="709" d="M15,0L284,716H424L694,0H559L384,490l-26,84h-7l-27-84L150,0H15ZM346,178V290H512l41-112H346Zm-195,0l40,112H346V178H151Zm40,602v7L302,911H406L517,787v-7H403l-43,60H349l-44-60H191Z" />
      <glyph unicode="&#xc3;" glyph-name="gid8" horiz-adv-x="709" d="M15,0L284,716H424L694,0H559L384,490l-26,84h-7l-27-84L150,0H15ZM346,178V290H512l41-112H346Zm-195,0l40,112H346V178H151ZM415,773q-24,0-45,9.5T333,802q-12,7-21,11t-17,4q-13,0-20-7.5T267,786H180q0,43 17,70t43,40t54,13q25,0 46.5-9.5T379,879q11-6 19.5-10t15.5-4q13,0 20.5,7.5T443,896h86q0-43-16.5-69.5t-42.5-40T415,773Z" />
      <glyph unicode="&#xc4;" glyph-name="gid5" horiz-adv-x="709" d="M15,0L284,716H424L694,0H559L384,490l-26,84h-7l-27-84L150,0H15ZM346,178V290H512l41-112H346Zm-195,0l40,112H346V178H151ZM446,787q-27,0-47,20t-20,47q0,28 20,47.5T446,921q29,0 48-19.5T513,854q0-27-19-47t-48-20Zm-184,0q-27,0-47,20t-20,47q0,28 20,47.5T262,921q29,0 48-19.5T329,854q0-27-19-47t-48-20Z" />
      <glyph unicode="&#xc5;" glyph-name="gid7" horiz-adv-x="709" d="M15,0L284,716H424L694,0H559L384,490l-26,84h-7l-27-84L150,0H15ZM346,178V290H512l41-112H346Zm-195,0l40,112H346V178H151ZM354,636q-35,0-62.5,16.5T248,697t-16,61q0,35 16,62.5t44,44T354,881t62-16.5t44.5-44T477,758q0-33-16.5-61T416,652.5T354,636Zm-1,80q18,0 30.5,12.5T396,758q0,18-12,30.5T353,801q-17,0-29.5-12.5T311,758q0-17 12.5-29.5T353,716Z" />
      <glyph unicode="&#xc6;" glyph-name="gid9" horiz-adv-x="993" d="M6,0L428,716H942V600H619V116H942V0H497V600h-9l-32-65L149,0H6ZM197,179l65,116H411V179H197Zm347,0H411V295H544V179Zm20,121V416H910V300H564Z" />
      <glyph unicode="&#xc7;" glyph-name="gid12" horiz-adv-x="743" d="M419-16q-79,0-147.5,28.5T152,92T73,211T45,358T73,505t79,119t119.5,79.5T419,732q56,0 104-13.5T611.5,679T685,615l-86-84q-23,27-49.5,46t-59,29T419,616q-69,0-126-32t-91-89.5T168,358q0-78 34-136t91-90t126-32q63,0 111.5,26T617,197l87-83q-34-40-78-69.5t-96-45T419-16Zm4-221q-35,0-61,19t-37,47l61,26q4-13 13.5-21.5T423-175q17,0 26.5,10.5T459-140t-9.5,25.5T423-103q-10,0-17-4.5T394-118L337-92L373,0h64L416-48q5,2 9.5,2t9.5,0q39,0 66-26t27-69q0-27-13-49t-37-34.5T423-237Z" />
      <glyph unicode="&#xc8;" glyph-name="gid19" horiz-adv-x="575" d="M80,0V716H524V600H203V116H524V0H80Zm68,300V416H492V300H148ZM259,780L174,911H312l44-131H259Z" />
      <glyph unicode="&#xc9;" glyph-name="gid16" horiz-adv-x="575" d="M80,0V716H524V600H203V116H524V0H80Zm68,300V416H492V300H148ZM254,780l44,131H436L351,780H254Z" />
      <glyph unicode="&#xca;" glyph-name="gid17" horiz-adv-x="575" d="M80,0V716H524V600H203V116H524V0H80Zm68,300V416H492V300H148Zm-9,480v7L250,911H354L465,787v-7H351l-43,60H297l-44-60H139Z" />
      <glyph unicode="&#xcb;" glyph-name="gid18" horiz-adv-x="575" d="M80,0V716H524V600H203V116H524V0H80Zm68,300V416H492V300H148ZM394,787q-27,0-47,20t-20,47q0,28 20,47.5T394,921q29,0 48-19.5T461,854q0-27-19-47t-48-20Zm-184,0q-27,0-47,20t-20,47q0,28 20,47.5T210,921q29,0 48-19.5T277,854q0-27-19-47t-48-20Z" />
      <glyph unicode="&#xcc;" glyph-name="gid27" horiz-adv-x="283" d="M80,0V716H203V0H80ZM98,780L13,911H151l44-131H98Z" />
      <glyph unicode="&#xcd;" glyph-name="gid24" horiz-adv-x="283" d="M80,0V716H203V0H80ZM92,780l44,131H274L189,780H92Z" />
      <glyph unicode="&#xce;" glyph-name="gid25" horiz-adv-x="283" d="M80,0V716H203V0H80ZM-22,780v7L89,911H193L304,787v-7H190l-43,60H136L92,780H-22Z" />
      <glyph unicode="&#xcf;" glyph-name="gid26" horiz-adv-x="283" d="M80,0V716H203V0H80ZM60,778q-27,0-46.5,19.5T-6,843q0,28 19.5,46.5T59,908q28,0 47-18.5T125,843q0-26-19-45.5T60,778Zm163,0q-27,0-46,19.5T158,843q0,28 19,46.5T223,908q28,0 46.5-18.5T288,843q0-26-18.5-45.5T223,778Z" />
      <glyph unicode="&#xd0;" glyph-name="gid14" horiz-adv-x="742" d="M95,0V716H331q113,0 195.5-45.5T653,544.5T697,358T653,171.5T526.5,45.5T331,0H95ZM218,116H326q81,0 136,29.5t83.5,84T574,358q0,75-28.5,129T462,570.5T326,600H218V116ZM20,307V407H407V307H20Z" />
      <glyph unicode="&#xd1;" glyph-name="gid34" horiz-adv-x="732" d="M80,0V716H224L530,213h7l-7,138V716H652V0H523L201,530h-7l7-138V0H80ZM427,773q-24,0-45,9.5T345,802q-12,7-21,11t-17,4q-13,0-20-7.5T279,786H192q0,43 17,70t43,40t54,13q25,0 46.5-9.5T391,879q11-6 19.5-10t15.5-4q13,0 20.5,7.5T455,896h86q0-43-16.5-69.5t-42.5-40T427,773Z" />
      <glyph unicode="&#xd2;" glyph-name="gid39" horiz-adv-x="834" d="M417-16q-80,0-148,28.5t-118,80T73,212T45,358T73,503.5T151,623t118,80.5T417,732t147.5-28.5t118-80T761,504t28-146T761,212T682.5,92.5t-118-80T417-16Zm0,116q70,0 126,32.5t90,91T667,358q0,77-34,135t-90,90.5T417,616q-69,0-125.5-32.5t-90-90.5T168,358q0-76 33.5-134.5t90-91T417,100ZM373,780L288,911H426l44-131H373Z" />
      <glyph unicode="&#xd3;" glyph-name="gid36" horiz-adv-x="834" d="M417-16q-80,0-148,28.5t-118,80T73,212T45,358T73,503.5T151,623t118,80.5T417,732t147.5-28.5t118-80T761,504t28-146T761,212T682.5,92.5t-118-80T417-16Zm0,116q70,0 126,32.5t90,91T667,358q0,77-34,135t-90,90.5T417,616q-69,0-125.5-32.5t-90-90.5T168,358q0-76 33.5-134.5t90-91T417,100ZM368,780l44,131H550L465,780H368Z" />
      <glyph unicode="&#xd4;" glyph-name="gid37" horiz-adv-x="834" d="M417-16q-80,0-148,28.5t-118,80T73,212T45,358T73,503.5T151,623t118,80.5T417,732t147.5-28.5t118-80T761,504t28-146T761,212T682.5,92.5t-118-80T417-16Zm0,116q70,0 126,32.5t90,91T667,358q0,77-34,135t-90,90.5T417,616q-69,0-125.5-32.5t-90-90.5T168,358q0-76 33.5-134.5t90-91T417,100ZM254,780v7L365,911H469L580,787v-7H466l-43,60H412l-44-60H254Z" />
      <glyph unicode="&#xd5;" glyph-name="gid41" horiz-adv-x="834" d="M417-16q-80,0-148,28.5t-118,80T73,212T45,358T73,503.5T151,623t118,80.5T417,732t147.5-28.5t118-80T761,504t28-146T761,212T682.5,92.5t-118-80T417-16Zm0,116q70,0 126,32.5t90,91T667,358q0,77-34,135t-90,90.5T417,616q-69,0-125.5-32.5t-90-90.5T168,358q0-76 33.5-134.5t90-91T417,100Zm61,673q-24,0-45,9.5T396,802q-12,7-21,11t-17,4q-13,0-20-7.5T330,786H243q0,43 17,70t43,40t54,13q25,0 46.5-9.5T442,879q11-6 19.5-10t15.5-4q13,0 20.5,7.5T506,896h86q0-43-16.5-69.5t-42.5-40T478,773Z" />
      <glyph unicode="&#xd6;" glyph-name="gid38" horiz-adv-x="834" d="M417-16q-80,0-148,28.5t-118,80T73,212T45,358T73,503.5T151,623t118,80.5T417,732t147.5-28.5t118-80T761,504t28-146T761,212T682.5,92.5t-118-80T417-16Zm0,116q70,0 126,32.5t90,91T667,358q0,77-34,135t-90,90.5T417,616q-69,0-125.5-32.5t-90-90.5T168,358q0-76 33.5-134.5t90-91T417,100Zm92,687q-27,0-47,20t-20,47q0,28 20,47.5T509,921q29,0 48-19.5T576,854q0-27-19-47t-48-20Zm-184,0q-27,0-47,20t-20,47q0,28 20,47.5T325,921q29,0 48-19.5T392,854q0-27-19-47t-48-20Z" />
      <glyph unicode="&#xd7;" glyph-name="gid265" horiz-adv-x="603" d="M66,115L465,499l72-72L138,43L66,115Zm0,312l72,72L537,115L465,43L66,427Z" />
      <glyph unicode="&#xd8;" glyph-name="gid40" horiz-adv-x="834" d="M417-16q-80,0-148,28.5t-118,80T73,212T45,358T73,503.5T151,623t118,80.5T417,732t147.5-28.5t118-80T761,504t28-146T761,212T682.5,92.5t-118-80T417-16Zm0,116q70,0 126,32.5t90,91T667,358q0,77-34,135t-90,90.5T417,616q-69,0-125.5-32.5t-90-90.5T168,358q0-76 33.5-134.5t90-91T417,100ZM224-44L142,9L610,760l83-53L224-44Z" />
      <glyph unicode="&#xd9;" glyph-name="gid53" horiz-adv-x="692" d="M346-16q-83,0-144.5,36t-96,102.5T71,280V716H193V273q0-49 17-88.5t51.5-62T346,100t84,22.5t51.5,62T499,273V716H620V280q0-87-33.5-154T492,21.5T346-16ZM302,780L217,911H355l44-131H302Z" />
      <glyph unicode="&#xda;" glyph-name="gid50" horiz-adv-x="692" d="M346-16q-83,0-144.5,36t-96,102.5T71,280V716H193V273q0-49 17-88.5t51.5-62T346,100t84,22.5t51.5,62T499,273V716H620V280q0-87-33.5-154T492,21.5T346-16ZM297,780l44,131H479L394,780H297Z" />
      <glyph unicode="&#xdb;" glyph-name="gid51" horiz-adv-x="692" d="M346-16q-83,0-144.5,36t-96,102.5T71,280V716H193V273q0-49 17-88.5t51.5-62T346,100t84,22.5t51.5,62T499,273V716H620V280q0-87-33.5-154T492,21.5T346-16ZM183,780v7L294,911H398L509,787v-7H395l-43,60H341l-44-60H183Z" />
      <glyph unicode="&#xdc;" glyph-name="gid52" horiz-adv-x="692" d="M346-16q-83,0-144.5,36t-96,102.5T71,280V716H193V273q0-49 17-88.5t51.5-62T346,100t84,22.5t51.5,62T499,273V716H620V280q0-87-33.5-154T492,21.5T346-16Zm91,803q-27,0-47,20t-20,47q0,28 20,47.5T437,921q29,0 48-19.5T504,854q0-27-19-47t-48-20Zm-184,0q-27,0-47,20t-20,47q0,28 20,47.5T253,921q29,0 48-19.5T320,854q0-27-19-47t-48-20Z" />
      <glyph unicode="&#xdd;" glyph-name="gid58" horiz-adv-x="621" d="M251,0V387H374V0H251ZM10,716H155L308,462h7L464,716H611L374,332H251L10,716Zm251,64l44,131H443L358,780H261Z" />
      <glyph unicode="&#xde;" glyph-name="gid44" horiz-adv-x="599" d="M80,0V716H203V0H80Zm68,159V275H333q37,0 62.5,15T434,329t13,52t-13,52t-38.5,39T333,487H148V603H330q66,0 120-28t86-78t32-116T536,265t-86-78T330,159H148Z" />
      <glyph unicode="&#xdf;" glyph-name="gid109" horiz-adv-x="576" d="M307-8q-14,0-28.5,1T249-4V105q13-2 25.5-3t26.5-1q33,0 59.5,14.5t41.5,40T417,215q0,33-17.5,59T353,314.5T289,329H259V435h22q33,0 57,12t37,34.5T388,532q0,39-29.5,64T287,621q-49,0-76.5-31.5T183,508V0H63V509q0,65 26.5,115t77,79T287,732q63,0 111.5-24.5t77-67.5T504,541q0-36-11.5-65t-30-50.5T421,390v-6q35-15 61.5-39.5T523,286t14-78q0-63-29.5-112t-81-76.5T307-8Z" />
      <glyph unicode="&#xe0;" glyph-name="gid66" horiz-adv-x="553" d="M222-16q-55,0-97,21.5T59,66T35,155q0,54 28,92.5t75,59T243,327q31,0 57.5-4t47-10T380,301v24q0,46-33.5,74.5T258,428q-38,0-72-17t-56-46L51,427q24,31 56,53.5t72,34T262,526q114,0 174.5-54.5T497,316V0H380V57h-7q-13-19-35-35.5t-51-27T222-16Zm25,95q41,0 71,18.5t46,49T380,211q-22,13-51.5,20T267,238q-62,0-87-24t-25-59q0-33 24-54.5T247,79ZM218,605L133,736H271l44-131H218Z" />
      <glyph unicode="&#xe1;" glyph-name="gid63" horiz-adv-x="553" d="M222-16q-55,0-97,21.5T59,66T35,155q0,54 28,92.5t75,59T243,327q31,0 57.5-4t47-10T380,301v24q0,46-33.5,74.5T258,428q-38,0-72-17t-56-46L51,427q24,31 56,53.5t72,34T262,526q114,0 174.5-54.5T497,316V0H380V57h-7q-13-19-35-35.5t-51-27T222-16Zm25,95q41,0 71,18.5t46,49T380,211q-22,13-51.5,20T267,238q-62,0-87-24t-25-59q0-33 24-54.5T247,79ZM217,605l44,131H399L314,605H217Z" />
      <glyph unicode="&#xe2;" glyph-name="gid64" horiz-adv-x="553" d="M222-16q-55,0-97,21.5T59,66T35,155q0,54 28,92.5t75,59T243,327q31,0 57.5-4t47-10T380,301v24q0,46-33.5,74.5T258,428q-38,0-72-17t-56-46L51,427q24,31 56,53.5t72,34T262,526q114,0 174.5-54.5T497,316V0H380V57h-7q-13-19-35-35.5t-51-27T222-16Zm25,95q41,0 71,18.5t46,49T380,211q-22,13-51.5,20T267,238q-62,0-87-24t-25-59q0-33 24-54.5T247,79ZM103,605v7L214,736H318L429,612v-7H315l-43,60H261l-44-60H103Z" />
      <glyph unicode="&#xe3;" glyph-name="gid68" horiz-adv-x="553" d="M222-16q-55,0-97,21.5T59,66T35,155q0,54 28,92.5t75,59T243,327q31,0 57.5-4t47-10T380,301v24q0,46-33.5,74.5T258,428q-38,0-72-17t-56-46L51,427q24,31 56,53.5t72,34T262,526q114,0 174.5-54.5T497,316V0H380V57h-7q-13-19-35-35.5t-51-27T222-16Zm25,95q41,0 71,18.5t46,49T380,211q-22,13-51.5,20T267,238q-62,0-87-24t-25-59q0-33 24-54.5T247,79Zm80,531q-24,0-45,9.5T245,639q-12,7-21,11t-17,4q-13,0-20-7.5T179,623H92q0,43 17,70t43,40t54,13q25,0 46.5-9.5T291,716q11-6 19.5-10t15.5-4q13,0 20.5,7.5T355,733h86q0-43-16.5-69.5t-42.5-40T327,610Z" />
      <glyph unicode="&#xe4;" glyph-name="gid65" horiz-adv-x="553" d="M222-16q-55,0-97,21.5T59,66T35,155q0,54 28,92.5t75,59T243,327q31,0 57.5-4t47-10T380,301v24q0,46-33.5,74.5T258,428q-38,0-72-17t-56-46L51,427q24,31 56,53.5t72,34T262,526q114,0 174.5-54.5T497,316V0H380V57h-7q-13-19-35-35.5t-51-27T222-16Zm25,95q41,0 71,18.5t46,49T380,211q-22,13-51.5,20T267,238q-62,0-87-24t-25-59q0-33 24-54.5T247,79ZM358,608q-27,0-47,20t-20,47q0,28 20,47.5T358,742q29,0 48-19.5T425,675q0-27-19-47t-48-20Zm-184,0q-27,0-47,20t-20,47q0,28 20,47.5T174,742q29,0 48-19.5T241,675q0-27-19-47t-48-20Z" />
      <glyph unicode="&#xe5;" glyph-name="gid67" horiz-adv-x="553" d="M222-16q-55,0-97,21.5T59,66T35,155q0,54 28,92.5t75,59T243,327q31,0 57.5-4t47-10T380,301v24q0,46-33.5,74.5T258,428q-38,0-72-17t-56-46L51,427q24,31 56,53.5t72,34T262,526q114,0 174.5-54.5T497,316V0H380V57h-7q-13-19-35-35.5t-51-27T222-16Zm25,95q41,0 71,18.5t46,49T380,211q-22,13-51.5,20T267,238q-62,0-87-24t-25-59q0-33 24-54.5T247,79Zm19,506q-30,0-54,14.5t-38,39T160,692q0,30 14,54t38,38.5T266,799t54-14.5T358.5,746T373,692q0-29-14.5-53.5t-38.5-39T266,585Zm0,69q16,0 27,11t11,27t-11,26.5T266,729q-15,0-26.5-10.5T228,692t11.5-27T266,654Z" />
      <glyph unicode="&#xe6;" glyph-name="gid69" horiz-adv-x="920" d="M229-16Q171-16 127,5.5T59,66T35,155q0,54 28,92.5t75,59T243,327q31,0 57-4t45.5-10T379,300v21q0,49-31.5,78T261,428q-38,0-64-17t-39-44L67,408q18,39 48,65t68.5,39.5T263,526q68,0 115-22t77-63q31,40 77,62t101,22q82,0 137.5-34T855,398.5T884,267q0-13-1-23.5T881,228H439v87H766q-1,18-9.5,37.5t-25,36t-40.5,27T634,426q-34,0-67-15.5t-54-51T492,264q0-65 22-103t57-54.5T642,90q49,0 82,22t52,55l98-48q-35-61-92.5-98T640-16q-70,0-123,32T431,97q-43-60-91.5-86.5T229-16Zm18,95q41,0 70.5,18.5t45.5,49T379,211q-27,16-55.5,21.5T267,238q-62,0-87-24t-25-59q0-33 24-54.5T247,79Z" />
      <glyph unicode="&#xe7;" glyph-name="gid72" horiz-adv-x="560" d="M300-16q-77,0-137,35T69,115.5T35,255q0,79 34,140t94,96t137,35q86,0 145.5-37T531,386L422,340q-17,38-48,56.5T299,415q-40,0-73-19.5T173.5,340T154,255t19.5-85T226,114t73-20q47,0 78.5,21T427,173l107-47Q505,63 445.5,23.5T300-16Zm4-221q-35,0-61,19t-37,47l61,26q4-13 13.5-21.5T304-175q17,0 26.5,10.5T340-140t-9.5,25.5T304-103q-10,0-17-4.5T275-118L218-92L254,0h64L297-48q5,2 9.5,2t9.5,0q39,0 66-26t27-69q0-27-13-49t-37-34.5T304-237Z" />
      <glyph unicode="&#xe8;" glyph-name="gid79" horiz-adv-x="578" d="M299-16q-77,0-136.5,35T69,115T35,254q0,73 33,135t91,99.5T293,526q81,0 136.5-34.5t84.5-93T543,267q0-13-1-23.5T540,228H102v87H426q-1,18-9.5,37.5T391,389t-41,27.5T294,427q-41,0-74-21.5t-51-59T151,258q0-55 20.5-92.5T226,109t75-19q49,0 82.5,22T436,167l97-48q-35-61-92.5-98T299-16ZM245,605L160,736H298l44-131H245Z" />
      <glyph unicode="&#xe9;" glyph-name="gid76" horiz-adv-x="578" d="M299-16q-77,0-136.5,35T69,115T35,254q0,73 33,135t91,99.5T293,526q81,0 136.5-34.5t84.5-93T543,267q0-13-1-23.5T540,228H102v87H426q-1,18-9.5,37.5T391,389t-41,27.5T294,427q-41,0-74-21.5t-51-59T151,258q0-55 20.5-92.5T226,109t75-19q49,0 82.5,22T436,167l97-48q-35-61-92.5-98T299-16ZM244,605l44,131H426L341,605H244Z" />
      <glyph unicode="&#xea;" glyph-name="gid77" horiz-adv-x="578" d="M299-16q-77,0-136.5,35T69,115T35,254q0,73 33,135t91,99.5T293,526q81,0 136.5-34.5t84.5-93T543,267q0-13-1-23.5T540,228H102v87H426q-1,18-9.5,37.5T391,389t-41,27.5T294,427q-41,0-74-21.5t-51-59T151,258q0-55 20.5-92.5T226,109t75-19q49,0 82.5,22T436,167l97-48q-35-61-92.5-98T299-16ZM130,605v7L241,736H345L456,612v-7H342l-43,60H288l-44-60H130Z" />
      <glyph unicode="&#xeb;" glyph-name="gid78" horiz-adv-x="578" d="M299-16q-77,0-136.5,35T69,115T35,254q0,73 33,135t91,99.5T293,526q81,0 136.5-34.5t84.5-93T543,267q0-13-1-23.5T540,228H102v87H426q-1,18-9.5,37.5T391,389t-41,27.5T294,427q-41,0-74-21.5t-51-59T151,258q0-55 20.5-92.5T226,109t75-19q49,0 82.5,22T436,167l97-48q-35-61-92.5-98T299-16Zm85,624q-27,0-47,20t-20,47q0,28 20,47.5T384,742q29,0 48-19.5T451,675q0-27-19-47t-48-20Zm-184,0q-27,0-47,20t-20,47q0,28 20,47.5T200,742q29,0 48-19.5T267,675q0-27-19-47t-48-20Z" />
      <glyph unicode="&#xec;" glyph-name="gid88" horiz-adv-x="245" d="M63,0V510H182V0H63ZM75,605L-10,736H128l44-131H75Z" />
      <glyph unicode="&#xed;" glyph-name="gid85" horiz-adv-x="245" d="M63,0V510H182V0H63ZM74,605l44,131H256L171,605H74Z" />
      <glyph unicode="&#xee;" glyph-name="gid86" horiz-adv-x="245" d="M63,0V510H182V0H63ZM-40,605v7L71,736H175L286,612v-7H172l-43,60H118L74,605H-40Z" />
      <glyph unicode="&#xef;" glyph-name="gid87" horiz-adv-x="245" d="M63,0V510H182V0H63ZM192,625q-24,0-42,18t-18,42t18,41.5T192,744q25,0 42-17.5T251,685t-17-42t-42-18ZM53,625q-24,0-42,18T-7,685t18,41.5T53,744t41.5-17.5T112,685T94.5,643T53,625Z" />
      <glyph unicode="&#xf0;" glyph-name="gid74" horiz-adv-x="573" d="M283-16q-69,0-125.5,34.5T68,110.5T35,239q0,73 33.5,130T156,458.5T271,491q41,0 71-13.5T388,449l6,5q-12,31-42,61.5t-69.5,56t-81.5,43T122,638l38,92q63-13 119.5-40T383,622t82-95t54-121.5T538,258q0-83-33-144.5T414.5,18T283-16Zm2,108q38,0 68,18t48,51.5T419,238q0,44-18,76.5t-48,51T285,384q-37,0-67.5-18.5t-48.5-51T151,238q0-43 17.5-76.5T217,110t68-18ZM187,503l-32,75L436,702l32-74L187,503Z" />
      <glyph unicode="&#xf1;" glyph-name="gid95" horiz-adv-x="587" d="M63,0V510H175V443h7q22,37 65,60t93,23q94,0 141.5-56.5T529,320V0H409V304q0,56-28,83.5T306,415q-37,0-65-20.5t-43.5-54T182,267V0H63ZM367,610q-24,0-45,9.5T285,639q-12,7-21,11t-17,4q-13,0-20-7.5T219,623H132q0,43 17,70t43,40t54,13q25,0 46.5-9.5T331,716q11-6 19.5-10t15.5-4q13,0 20.5,7.5T395,733h86q0-43-16.5-69.5t-42.5-40T367,610Z" />
      <glyph unicode="&#xf2;" glyph-name="gid100" horiz-adv-x="608" d="M304-16q-79,0-140,35.5t-95,97T35,255T69,393.5t95,97T304,526q80,0 140.5-36T539,392.5T573,255q0-77-34-138.5t-95-97T304-16Zm0,111q40,0 74,19t55,55t21,86q0,51-21,86.5T378,396t-73,19q-40,0-74.5-19T175,341t-21-86q0-51 21-87t55.5-54.5T304,95ZM256,605L171,736H309l44-131H256Z" />
      <glyph unicode="&#xf3;" glyph-name="gid97" horiz-adv-x="608" d="M304-16q-79,0-140,35.5t-95,97T35,255T69,393.5t95,97T304,526q80,0 140.5-36T539,392.5T573,255q0-77-34-138.5t-95-97T304-16Zm0,111q40,0 74,19t55,55t21,86q0,51-21,86.5T378,396t-73,19q-40,0-74.5-19T175,341t-21-86q0-51 21-87t55.5-54.5T304,95ZM256,605l44,131H438L353,605H256Z" />
      <glyph unicode="&#xf4;" glyph-name="gid98" horiz-adv-x="608" d="M304-16q-79,0-140,35.5t-95,97T35,255T69,393.5t95,97T304,526q80,0 140.5-36T539,392.5T573,255q0-77-34-138.5t-95-97T304-16Zm0,111q40,0 74,19t55,55t21,86q0,51-21,86.5T378,396t-73,19q-40,0-74.5-19T175,341t-21-86q0-51 21-87t55.5-54.5T304,95ZM141,605v7L252,736H356L467,612v-7H353l-43,60H299l-44-60H141Z" />
      <glyph unicode="&#xf5;" glyph-name="gid102" horiz-adv-x="608" d="M304-16q-79,0-140,35.5t-95,97T35,255T69,393.5t95,97T304,526q80,0 140.5-36T539,392.5T573,255q0-77-34-138.5t-95-97T304-16Zm0,111q40,0 74,19t55,55t21,86q0,51-21,86.5T378,396t-73,19q-40,0-74.5-19T175,341t-21-86q0-51 21-87t55.5-54.5T304,95Zm61,515q-24,0-45,9.5T283,639q-12,7-21,11t-17,4q-13,0-20-7.5T217,623H130q0,43 17,70t43,40t54,13q25,0 46.5-9.5T329,716q11-6 19.5-10t15.5-4q13,0 20.5,7.5T393,733h86q0-43-16.5-69.5t-42.5-40T365,610Z" />
      <glyph unicode="&#xf6;" glyph-name="gid99" horiz-adv-x="608" d="M304-16q-79,0-140,35.5t-95,97T35,255T69,393.5t95,97T304,526q80,0 140.5-36T539,392.5T573,255q0-77-34-138.5t-95-97T304-16Zm0,111q40,0 74,19t55,55t21,86q0,51-21,86.5T378,396t-73,19q-40,0-74.5-19T175,341t-21-86q0-51 21-87t55.5-54.5T304,95Zm92,513q-27,0-47,20t-20,47q0,28 20,47.5T396,742q29,0 48-19.5T463,675q0-27-19-47t-48-20Zm-184,0q-27,0-47,20t-20,47q0,28 20,47.5T212,742q29,0 48-19.5T279,675q0-27-19-47t-48-20Z" />
      <glyph unicode="&#xf7;" glyph-name="gid266" horiz-adv-x="561" d="M55,222v98H506V222H55ZM280-1q-32,0-54.5,22.5T203,77q0,32 22,54.5T280,154t55-22.5T357,77q0-33-22-55.5T280-1Zm0,389q-32,0-54.5,22.5T203,465q0,33 22,55.5T280,543t55-22.5T357,465q0-32-22-54.5T280,388Z" />
      <glyph unicode="&#xf8;" glyph-name="gid101" horiz-adv-x="608" d="M304-16q-79,0-140,35.5t-95,97T35,255T69,393.5t95,97T304,526q80,0 140.5-36T539,392.5T573,255q0-77-34-138.5t-95-97T304-16Zm0,111q40,0 74,19t55,55t21,86q0,51-21,86.5T378,396t-73,19q-40,0-74.5-19T175,341t-21-86q0-51 21-87t55.5-54.5T304,95ZM176-39L95,6L433,550l82-46L176-39Z" />
      <glyph unicode="&#xf9;" glyph-name="gid115" horiz-adv-x="587" d="M247-16q-94,0-141,57T59,197V510H178V212q0-58 28-88t71-30q40,0 69,20.5T390,169t15,74V510H525V0H412V67h-7q-14-24-38.5-43T312-5.5T247-16Zm-3,621L159,736H297l44-131H244Z" />
      <glyph unicode="&#xfa;" glyph-name="gid112" horiz-adv-x="587" d="M247-16q-94,0-141,57T59,197V510H178V212q0-58 28-88t71-30q40,0 69,20.5T390,169t15,74V510H525V0H412V67h-7q-14-24-38.5-43T312-5.5T247-16Zm-4,621l44,131H425L340,605H243Z" />
      <glyph unicode="&#xfb;" glyph-name="gid113" horiz-adv-x="587" d="M247-16q-94,0-141,57T59,197V510H178V212q0-58 28-88t71-30q40,0 69,20.5T390,169t15,74V510H525V0H412V67h-7q-14-24-38.5-43T312-5.5T247-16ZM129,605v7L240,736H344L455,612v-7H341l-43,60H287l-44-60H129Z" />
      <glyph unicode="&#xfc;" glyph-name="gid114" horiz-adv-x="587" d="M247-16q-94,0-141,57T59,197V510H178V212q0-58 28-88t71-30q40,0 69,20.5T390,169t15,74V510H525V0H412V67h-7q-14-24-38.5-43T312-5.5T247-16ZM384,608q-27,0-47,20t-20,47q0,28 20,47.5T384,742q29,0 48-19.5T451,675q0-27-19-47t-48-20Zm-184,0q-27,0-47,20t-20,47q0,28 20,47.5T200,742q29,0 48-19.5T267,675q0-27-19-47t-48-20Z" />
      <glyph unicode="&#xfd;" glyph-name="gid120" horiz-adv-x="554" d="M246-192q-3-7-6-13.5T235-216H108q4,9 14.5,32T141-142q6,12 13.5,29T170-78.5T184-49l75,167l25,59L418,510H550L287-97q-9-21-17.5-40.5t-14-33.5T246-192ZM224,11L4,510H139L278,177h13L224,11Zm4,594l44,131H410L325,605H228Z" />
      <glyph unicode="&#xfe;" glyph-name="gid105" horiz-adv-x="621" d="M63-216V716H181V513l-7-69h7q20,32 61,57t98,25q70,0 125.5-34.5t88-95.5T586,255T553.5,114t-88-95.5T340-16q-57,0-98,24.5T181,65h-7l7-69V-216H63ZM321,94q38,0 71.5,19.5t54,56T467,255q0,50-20.5,85.5t-54,55T321,415t-71.5-19.5T195,340t-21-85t21-85t54.5-56T321,94Z" />
      <glyph unicode="&#xff;" glyph-name="gid121" horiz-adv-x="554" d="M246-192q-3-7-6-13.5T235-216H108q4,9 14.5,32T141-142q6,12 13.5,29T170-78.5T184-49l75,167l25,59L418,510H550L287-97q-9-21-17.5-40.5t-14-33.5T246-192ZM224,11L4,510H139L278,177h13L224,11ZM368,608q-27,0-47,20t-20,47q0,28 20,47.5T368,742q29,0 48-19.5T435,675q0-27-19-47t-48-20Zm-184,0q-27,0-47,20t-20,47q0,28 20,47.5T184,742q29,0 48-19.5T251,675q0-27-19-47t-48-20Z" />
      <glyph unicode="&#x2013;" glyph-name="gid224" horiz-adv-x="619" d="M63,258V362H556V258H63Z" />
      <glyph unicode="&#x2014;" glyph-name="gid225" horiz-adv-x="923" d="M63,258V362H860V258H63Z" />
      <glyph unicode="&#x2018;" glyph-name="gid231" horiz-adv-x="256" d="M153,732l54-36l-50-77q21-7 36-26t15-47q0-33-23.5-57T128,465q-17,0-32,6.5T70.5,489t-17,26T47,546q0,13 3,24t9,21.5T72,613l81,119Z" />
      <glyph unicode="&#x2019;" glyph-name="gid232" horiz-adv-x="256" d="M48,501l56,76q-23,7-39.5,27T48,651q0,34 23.5,57.5T128,732q17,0 31.5-6.5t26-17T203,683t6-32q0-12-3.5-23t-9-21.5T183,585L102,465L48,501Z" />
      <glyph unicode="&#x201a;" glyph-name="gid227" horiz-adv-x="256" d="M48-77L104-1Q81,6 64.5,26T48,73q0,34 23.5,57.5T128,154q17,0 31.5-6.5t26-17T203,105t6-32q0-12-3.5-23t-9-21.5T183,7L102-113L48-77Z" />
      <glyph unicode="&#x201c;" glyph-name="gid229" horiz-adv-x="462" d="M153,732l54-36l-50-77q21-7 36-26t15-47q0-33-23.5-57T128,465q-17,0-32,6.5T70.5,489t-17,26T47,546q0,13 3,24t9,21.5T72,613l81,119Zm206,0l54-36l-50-77q21-7 36-26t15-47q0-33-23.5-57T334,465q-17,0-32,6.5T276.5,489t-17,26T253,546q0,13 3,24t9,21.5T278,613l81,119Z" />
      <glyph unicode="&#x201d;" glyph-name="gid230" horiz-adv-x="462" d="M48,501l56,76q-23,7-39.5,27T48,651q0,34 23.5,57.5T128,732q17,0 31.5-6.5t26-17T203,683t6-32q0-12-3.5-23t-9-21.5T183,585L102,465L48,501Zm206,0l56,76q-23,7-39.5,27T254,651q0,34 23.5,57.5T334,732q17,0 31.5-6.5t26-17T409,683t6-32q0-12-3.5-23t-9-21.5T389,585L308,465l-54,36Z" />
      <glyph unicode="&#x201e;" glyph-name="gid228" horiz-adv-x="455" d="M48-77L104-1Q81,6 64.5,26T48,73q0,34 23.5,57.5T128,154q17,0 31.5-6.5t26-17T203,105t6-32q0-12-3.5-23t-9-21.5T183,7L102-113L48-77Zm199,0L303-1q-23,7-39.5,27T247,73q0,34 23.5,57.5T327,154q17,0 31.5-6.5t26-17T402,105t6-32q0-12-3.5-23t-9-21.5T382,7L301-113L247-77Z" />
      <glyph unicode="&#x2022;" glyph-name="gid204" horiz-adv-x="409" d="M205,198q-35,0-63.5,17t-46,45.5T78,324t17.5,63.5t46,45.5T205,450t63-17t45-45.5T330,324t-17-63.5T268,215t-63-17Z" />
      <glyph unicode="&#x2039;" glyph-name="gid235" horiz-adv-x="375" d="M248,44L39,271L248,498l68-63L164,271L316,107L248,44Z" />
      <glyph unicode="&#x203a;" glyph-name="gid236" horiz-adv-x="375" d="M127,44L59,107L211,271L59,435l68,63L336,271L127,44Z" />
    </font>
</defs>
</svg>
